<svg width="40" height="40" viewBox="0 0 40 40" fill="none" xmlns="http://www.w3.org/2000/svg">
<mask id="mask0_903_301" style="mask-type:alpha" maskUnits="userSpaceOnUse" x="10" y="11" width="18" height="18">
<rect x="10.9336" y="11.4666" width="17.0667" height="17.0667" fill="#D9D9D9"/>
</mask>
<g mask="url(#mask0_903_301)">
<path d="M19.4672 19.9999C18.685 19.9999 18.0154 19.7214 17.4583 19.1644C16.9013 18.6073 16.6228 17.9377 16.6228 17.1555C16.6228 16.3733 16.9013 15.7036 17.4583 15.1466C18.0154 14.5896 18.685 14.311 19.4672 14.311C20.2494 14.311 20.9191 14.5896 21.4761 15.1466C22.0331 15.7036 22.3117 16.3733 22.3117 17.1555C22.3117 17.9377 22.0331 18.6073 21.4761 19.1644C20.9191 19.7214 20.2494 19.9999 19.4672 19.9999ZM13.7783 25.6888V23.6977C13.7783 23.2947 13.882 22.9244 14.0894 22.5866C14.2968 22.2488 14.5724 21.991 14.9161 21.8133C15.6509 21.4459 16.3976 21.1703 17.1561 20.9866C17.9146 20.8029 18.685 20.711 19.4672 20.711C20.2494 20.711 21.0198 20.8029 21.7783 20.9866C22.5368 21.1703 23.2835 21.4459 24.0183 21.8133C24.362 21.991 24.6376 22.2488 24.845 22.5866C25.0524 22.9244 25.1561 23.2947 25.1561 23.6977V25.6888H13.7783ZM15.2005 24.2666H23.7339V23.6977C23.7339 23.5673 23.7013 23.4488 23.6361 23.3421C23.5709 23.2355 23.485 23.1525 23.3783 23.0933C22.7383 22.7733 22.0924 22.5333 21.4405 22.3733C20.7887 22.2133 20.1309 22.1333 19.4672 22.1333C18.8035 22.1333 18.1457 22.2133 17.4939 22.3733C16.842 22.5333 16.1961 22.7733 15.5561 23.0933C15.4494 23.1525 15.3635 23.2355 15.2983 23.3421C15.2331 23.4488 15.2005 23.5673 15.2005 23.6977V24.2666ZM19.4672 18.5777C19.8583 18.5777 20.1931 18.4384 20.4717 18.1599C20.7502 17.8814 20.8894 17.5466 20.8894 17.1555C20.8894 16.7644 20.7502 16.4296 20.4717 16.151C20.1931 15.8725 19.8583 15.7333 19.4672 15.7333C19.0761 15.7333 18.7413 15.8725 18.4628 16.151C18.1842 16.4296 18.045 16.7644 18.045 17.1555C18.045 17.5466 18.1842 17.8814 18.4628 18.1599C18.7413 18.4384 19.0761 18.5777 19.4672 18.5777Z" fill="#1C1B1F"/>
</g>
</svg>
