<svg width="40" height="40" viewBox="0 0 40 40" fill="none" xmlns="http://www.w3.org/2000/svg">
<path d="M14.2955 6.43359H25.6887C30.029 6.43359 33.5554 9.96007 33.5554 14.3004V25.6936C33.5554 27.78 32.7267 29.781 31.2514 31.2562C29.7761 32.7315 27.7751 33.5603 25.6887 33.5603H14.2955C9.95519 33.5603 6.42871 30.0339 6.42871 25.6936V14.3004C6.42871 12.214 7.25753 10.213 8.73283 8.73771C10.2081 7.26241 12.2091 6.43359 14.2955 6.43359ZM14.0242 9.14627C12.7292 9.14627 11.4872 9.66071 10.5715 10.5764C9.65583 11.4921 9.14139 12.7341 9.14139 14.0291V25.9649C9.14139 28.664 11.3251 30.8477 14.0242 30.8477H25.96C27.2549 30.8477 28.4969 30.3333 29.4127 29.4176C30.3284 28.5019 30.8428 27.2598 30.8428 25.9649V14.0291C30.8428 11.33 28.6591 9.14627 25.96 9.14627H14.0242ZM27.1128 11.1808C27.5626 11.1808 27.9938 11.3594 28.3117 11.6774C28.6297 11.9953 28.8083 12.4265 28.8083 12.8762C28.8083 13.3258 28.6297 13.7571 28.3117 14.075C27.9938 14.393 27.5626 14.5716 27.1128 14.5716C26.6632 14.5716 26.232 14.393 25.914 14.075C25.5961 13.7571 25.4175 13.3258 25.4175 12.8762C25.4175 12.4265 25.5961 11.9953 25.914 11.6774C26.232 11.3594 26.6632 11.1808 27.1128 11.1808ZM19.9921 13.2153C21.7907 13.2153 23.5157 13.9298 24.7875 15.2016C26.0593 16.4734 26.7738 18.1983 26.7738 19.997C26.7738 21.7956 26.0593 23.5206 24.7875 24.7924C23.5157 26.0642 21.7907 26.7787 19.9921 26.7787C18.1935 26.7787 16.4686 26.0642 15.1967 24.7924C13.9249 23.5206 13.2104 21.7956 13.2104 19.997C13.2104 18.1983 13.9249 16.4734 15.1967 15.2016C16.4686 13.9298 18.1935 13.2153 19.9921 13.2153ZM19.9921 15.9279C18.913 15.9279 17.878 16.3567 17.1149 17.1198C16.3518 17.8828 15.923 18.9178 15.923 19.997C15.923 21.0762 16.3518 22.1112 17.1149 22.8742C17.878 23.6373 18.913 24.066 19.9921 24.066C21.0713 24.066 22.1062 23.6373 22.8693 22.8742C23.6324 22.1112 24.0611 21.0762 24.0611 19.997C24.0611 18.9178 23.6324 17.8828 22.8693 17.1198C22.1062 16.3567 21.0713 15.9279 19.9921 15.9279Z" fill="black"/>
</svg>
