<svg width="40" height="40" viewBox="0 0 40 40" fill="none" xmlns="http://www.w3.org/2000/svg">
<mask id="mask0_949_588" style="mask-type:alpha" maskUnits="userSpaceOnUse" x="3" y="4" width="32" height="32">
<rect x="3" y="4" width="32" height="32" fill="#D9D9D9"/>
</mask>
<g mask="url(#mask0_949_588)">
<path d="M19.0007 20.0007C17.534 20.0007 16.2784 19.4784 15.234 18.434C14.1895 17.3895 13.6673 16.134 13.6673 14.6673C13.6673 13.2007 14.1895 11.9451 15.234 10.9007C16.2784 9.85621 17.534 9.33398 19.0007 9.33398C20.4673 9.33398 21.7229 9.85621 22.7673 10.9007C23.8118 11.9451 24.334 13.2007 24.334 14.6673C24.334 16.134 23.8118 17.3895 22.7673 18.434C21.7229 19.4784 20.4673 20.0007 19.0007 20.0007ZM8.33398 30.6673V26.934C8.33398 26.1784 8.52843 25.484 8.91732 24.8507C9.30621 24.2173 9.82287 23.734 10.4673 23.4007C11.8451 22.7118 13.2451 22.1951 14.6673 21.8507C16.0895 21.5062 17.534 21.334 19.0007 21.334C20.4673 21.334 21.9118 21.5062 23.334 21.8507C24.7562 22.1951 26.1562 22.7118 27.534 23.4007C28.1784 23.734 28.6951 24.2173 29.084 24.8507C29.4729 25.484 29.6673 26.1784 29.6673 26.934V30.6673H8.33398ZM11.0007 28.0007H27.0007V26.934C27.0007 26.6895 26.9395 26.4673 26.8173 26.2673C26.6951 26.0673 26.534 25.9118 26.334 25.8007C25.134 25.2007 23.9229 24.7507 22.7007 24.4507C21.4784 24.1507 20.2451 24.0007 19.0007 24.0007C17.7562 24.0007 16.5229 24.1507 15.3007 24.4507C14.0784 24.7507 12.8673 25.2007 11.6673 25.8007C11.4673 25.9118 11.3062 26.0673 11.184 26.2673C11.0618 26.4673 11.0007 26.6895 11.0007 26.934V28.0007ZM19.0007 17.334C19.734 17.334 20.3618 17.0729 20.884 16.5507C21.4062 16.0284 21.6673 15.4007 21.6673 14.6673C21.6673 13.934 21.4062 13.3062 20.884 12.784C20.3618 12.2618 19.734 12.0007 19.0007 12.0007C18.2673 12.0007 17.6395 12.2618 17.1173 12.784C16.5951 13.3062 16.334 13.934 16.334 14.6673C16.334 15.4007 16.5951 16.0284 17.1173 16.5507C17.6395 17.0729 18.2673 17.334 19.0007 17.334Z" fill="black"/>
</g>
</svg>
