<svg width="40" height="40" viewBox="0 0 40 40" fill="none" xmlns="http://www.w3.org/2000/svg">
<mask id="mask0_949_577" style="mask-type:alpha" maskUnits="userSpaceOnUse" x="4" y="4" width="32" height="32">
<rect x="4" y="4" width="32" height="32" fill="#D9D9D9"/>
</mask>
<g mask="url(#mask0_949_577)">
<path d="M30.1333 32L21.7333 23.6C21.0667 24.1333 20.3 24.5556 19.4333 24.8667C18.5667 25.1778 17.6444 25.3333 16.6667 25.3333C14.2444 25.3333 12.1944 24.4944 10.5167 22.8167C8.83889 21.1389 8 19.0889 8 16.6667C8 14.2444 8.83889 12.1944 10.5167 10.5167C12.1944 8.83889 14.2444 8 16.6667 8C19.0889 8 21.1389 8.83889 22.8167 10.5167C24.4944 12.1944 25.3333 14.2444 25.3333 16.6667C25.3333 17.6444 25.1778 18.5667 24.8667 19.4333C24.5556 20.3 24.1333 21.0667 23.6 21.7333L32 30.1333L30.1333 32ZM16.6667 22.6667C18.3333 22.6667 19.75 22.0833 20.9167 20.9167C22.0833 19.75 22.6667 18.3333 22.6667 16.6667C22.6667 15 22.0833 13.5833 20.9167 12.4167C19.75 11.25 18.3333 10.6667 16.6667 10.6667C15 10.6667 13.5833 11.25 12.4167 12.4167C11.25 13.5833 10.6667 15 10.6667 16.6667C10.6667 18.3333 11.25 19.75 12.4167 20.9167C13.5833 22.0833 15 22.6667 16.6667 22.6667Z" fill="black"/>
</g>
</svg>
