<svg width="40" height="40" viewBox="0 0 40 40" fill="none" xmlns="http://www.w3.org/2000/svg">
<mask id="mask0_903_291" style="mask-type:alpha" maskUnits="userSpaceOnUse" x="12" y="12" width="16" height="16">
<rect x="12" y="12" width="16" height="16" fill="#D9D9D9"/>
</mask>
<g mask="url(#mask0_903_291)">
<path d="M25.0667 26L20.8667 21.8C20.5333 22.0667 20.15 22.2778 19.7167 22.4333C19.2833 22.5889 18.8222 22.6667 18.3333 22.6667C17.1222 22.6667 16.0972 22.2472 15.2583 21.4083C14.4194 20.5694 14 19.5444 14 18.3333C14 17.1222 14.4194 16.0972 15.2583 15.2583C16.0972 14.4194 17.1222 14 18.3333 14C19.5444 14 20.5694 14.4194 21.4083 15.2583C22.2472 16.0972 22.6667 17.1222 22.6667 18.3333C22.6667 18.8222 22.5889 19.2833 22.4333 19.7167C22.2778 20.15 22.0667 20.5333 21.8 20.8667L26 25.0667L25.0667 26ZM18.3333 21.3333C19.1667 21.3333 19.875 21.0417 20.4583 20.4583C21.0417 19.875 21.3333 19.1667 21.3333 18.3333C21.3333 17.5 21.0417 16.7917 20.4583 16.2083C19.875 15.625 19.1667 15.3333 18.3333 15.3333C17.5 15.3333 16.7917 15.625 16.2083 16.2083C15.625 16.7917 15.3333 17.5 15.3333 18.3333C15.3333 19.1667 15.625 19.875 16.2083 20.4583C16.7917 21.0417 17.5 21.3333 18.3333 21.3333Z" fill="#1C1B1F"/>
</g>
</svg>
