<svg width="40" height="40" viewBox="0 0 40 40" fill="none" xmlns="http://www.w3.org/2000/svg">
<mask id="mask0_949_583" style="mask-type:alpha" maskUnits="userSpaceOnUse" x="4" y="4" width="32" height="32">
<rect x="4" y="4" width="32" height="32" fill="#D9D9D9"/>
</mask>
<g mask="url(#mask0_949_583)">
<path d="M13.334 33.3327C12.6007 33.3327 11.9729 33.0716 11.4507 32.5493C10.9284 32.0271 10.6673 31.3993 10.6673 30.666C10.6673 29.9327 10.9284 29.3049 11.4507 28.7827C11.9729 28.2605 12.6007 27.9993 13.334 27.9993C14.0673 27.9993 14.6951 28.2605 15.2173 28.7827C15.7395 29.3049 16.0007 29.9327 16.0007 30.666C16.0007 31.3993 15.7395 32.0271 15.2173 32.5493C14.6951 33.0716 14.0673 33.3327 13.334 33.3327ZM26.6673 33.3327C25.934 33.3327 25.3062 33.0716 24.784 32.5493C24.2618 32.0271 24.0007 31.3993 24.0007 30.666C24.0007 29.9327 24.2618 29.3049 24.784 28.7827C25.3062 28.2605 25.934 27.9993 26.6673 27.9993C27.4007 27.9993 28.0284 28.2605 28.5507 28.7827C29.0729 29.3049 29.334 29.9327 29.334 30.666C29.334 31.3993 29.0729 32.0271 28.5507 32.5493C28.0284 33.0716 27.4007 33.3327 26.6673 33.3327ZM12.2007 11.9993L15.4007 18.666H24.734L28.4007 11.9993H12.2007ZM10.934 9.33268H30.6007C31.1118 9.33268 31.5007 9.56046 31.7673 10.016C32.034 10.4716 32.0451 10.9327 31.8007 11.3993L27.0673 19.9327C26.8229 20.3771 26.4951 20.7216 26.084 20.966C25.6729 21.2105 25.2229 21.3327 24.734 21.3327H14.8007L13.334 23.9993H29.334V26.666H13.334C12.334 26.666 11.5784 26.2271 11.0673 25.3493C10.5562 24.4716 10.534 23.5993 11.0007 22.7327L12.8007 19.466L8.00065 9.33268H5.33398V6.66602H9.66732L10.934 9.33268Z" fill="black"/>
</g>
</svg>
