<svg width="40" height="40" viewBox="0 0 40 40" fill="none" xmlns="http://www.w3.org/2000/svg">
<mask id="mask0_903_296" style="mask-type:alpha" maskUnits="userSpaceOnUse" x="12" y="12" width="16" height="16">
<rect x="12" y="12" width="16" height="16" fill="#D9D9D9"/>
</mask>
<g mask="url(#mask0_903_296)">
<path d="M16.667 26.6666C16.3003 26.6666 15.9864 26.536 15.7253 26.2749C15.4642 26.0138 15.3337 25.6999 15.3337 25.3333C15.3337 24.9666 15.4642 24.6527 15.7253 24.3916C15.9864 24.1305 16.3003 23.9999 16.667 23.9999C17.0337 23.9999 17.3475 24.1305 17.6087 24.3916C17.8698 24.6527 18.0003 24.9666 18.0003 25.3333C18.0003 25.6999 17.8698 26.0138 17.6087 26.2749C17.3475 26.536 17.0337 26.6666 16.667 26.6666ZM23.3337 26.6666C22.967 26.6666 22.6531 26.536 22.392 26.2749C22.1309 26.0138 22.0003 25.6999 22.0003 25.3333C22.0003 24.9666 22.1309 24.6527 22.392 24.3916C22.6531 24.1305 22.967 23.9999 23.3337 23.9999C23.7003 23.9999 24.0142 24.1305 24.2753 24.3916C24.5364 24.6527 24.667 24.9666 24.667 25.3333C24.667 25.6999 24.5364 26.0138 24.2753 26.2749C24.0142 26.536 23.7003 26.6666 23.3337 26.6666ZM16.1003 15.9999L17.7003 19.3333H22.367L24.2003 15.9999H16.1003ZM15.467 14.6666H25.3003C25.5559 14.6666 25.7503 14.7805 25.8837 15.0083C26.017 15.236 26.0225 15.4666 25.9003 15.6999L23.5337 19.9666C23.4114 20.1888 23.2475 20.361 23.042 20.4833C22.8364 20.6055 22.6114 20.6666 22.367 20.6666H17.4003L16.667 21.9999H24.667V23.3333H16.667C16.167 23.3333 15.7892 23.1138 15.5337 22.6749C15.2781 22.236 15.267 21.7999 15.5003 21.3666L16.4003 19.7333L14.0003 14.6666H12.667V13.3333H14.8337L15.467 14.6666Z" fill="#1C1B1F"/>
</g>
</svg>
