<svg width="40" height="40" viewBox="0 0 40 40" fill="none" xmlns="http://www.w3.org/2000/svg">
<path d="M17.2194 24.1583L24.4124 20.0005L17.2194 15.8426V24.1583ZM33.2409 13.3063C33.4211 13.9577 33.5458 14.8309 33.6289 15.9396C33.7259 17.0484 33.7675 18.0047 33.7675 18.8362L33.8507 20.0005C33.8507 23.0356 33.6289 25.267 33.2409 26.6945C32.8944 27.9419 32.0905 28.7457 30.8432 29.0922C30.1918 29.2724 28.9999 29.3971 27.1704 29.4803C25.3687 29.5773 23.7194 29.6189 22.1949 29.6189L19.9913 29.702C14.1842 29.702 10.5669 29.4803 9.13933 29.0922C7.89199 28.7457 7.08813 27.9419 6.74165 26.6945C6.56148 26.0431 6.43674 25.17 6.35359 24.0612C6.25657 22.9525 6.21499 21.9962 6.21499 21.1646L6.13184 20.0005C6.13184 16.9652 6.35359 14.7338 6.74165 13.3063C7.08813 12.059 7.89199 11.2551 9.13933 10.9086C9.79073 10.7285 10.9826 10.6037 12.8121 10.5206C14.6138 10.4236 16.2631 10.382 17.7876 10.382L19.9913 10.2988C25.7984 10.2988 29.4157 10.5206 30.8432 10.9086C32.0905 11.2551 32.8944 12.059 33.2409 13.3063Z" fill="black"/>
</svg>
